<svg width="21" height="18" viewBox="0 0 21 18" fill="none" xmlns="http://www.w3.org/2000/svg">
<path d="M7 17C7.41421 17 7.75 16.6642 7.75 16.25C7.75 15.8358 7.41421 15.5 7 15.5C6.58579 15.5 6.25 15.8358 6.25 16.25C6.25 16.6642 6.58579 17 7 17Z" stroke="#333333" stroke-linecap="round" stroke-linejoin="round"/>
<path d="M17.5 17C17.9142 17 18.25 16.6642 18.25 16.25C18.25 15.8358 17.9142 15.5 17.5 15.5C17.0858 15.5 16.75 15.8358 16.75 16.25C16.75 16.6642 17.0858 17 17.5 17Z" stroke="#333333" stroke-linecap="round" stroke-linejoin="round"/>
<path d="M1 0.5H4L6.25 13.25H18.25" stroke="#333333" stroke-linecap="round" stroke-linejoin="round"/>
<path d="M6.25 10.25H17.9425C18.0292 10.2501 18.1133 10.2201 18.1804 10.1651C18.2475 10.1101 18.2934 10.0336 18.3105 9.94859L19.6605 3.19859C19.6714 3.14417 19.67 3.088 19.6566 3.03414C19.6431 2.98029 19.6179 2.93009 19.5827 2.88717C19.5475 2.84426 19.5032 2.80969 19.453 2.78597C19.4028 2.76225 19.348 2.74996 19.2925 2.75H4.75" stroke="#333333" stroke-linecap="round" stroke-linejoin="round"/>
</svg>
