<svg width="59" height="47" viewBox="0 0 59 47" fill="none" xmlns="http://www.w3.org/2000/svg">
<path d="M34.0444 4.50739C34.0444 6.99645 32.0108 9.01499 29.5001 9.01499C26.9894 9.01499 24.9556 6.99645 24.9556 4.50739C24.9556 2.01834 26.9894 0 29.4999 0C32.0104 0 34.0442 2.01752 34.0442 4.50739H34.0444Z" fill="#DFD982"/>
<path d="M58.4427 16.3158C57.1818 16.2135 54.0232 15.9202 49.438 17.1293C48.8576 12.4376 47.5563 8.7926 45.9432 4.9032C39.5221 7.13765 33.7635 10.8657 29.4999 15.036C25.2365 10.8655 19.4777 7.13765 13.0566 4.9032C11.4437 8.7926 10.1421 12.4378 9.56181 17.1293C4.63695 15.8496 1.81843 16.2135 0.556921 16.3158C-0.799254 23.3913 0.236564 31.4296 4.58643 37.3121C10.7449 45.6376 20.5143 46.2733 25.556 47C23.4415 44.967 18.6472 39.6231 17.6301 38.3067C17.627 38.3034 17.6114 38.2861 17.6114 38.2861H17.6134C13.0927 32.4315 11.6686 26.3036 11.9982 19.1515C12.0659 17.6823 12.3352 16.1985 12.5526 15.1114L12.5563 15.1132C13.0048 12.7973 13.6776 10.5052 14.5397 8.25283C16.9664 9.28329 22.7168 12.0553 27.7252 16.9739C25.8589 19.0776 24.304 21.3222 23.0827 23.6793C23.0827 23.6793 19.5549 20.5272 14.0252 18.5999C13.9281 19.5167 13.8969 20.4828 13.9263 21.4002C21.9949 24.8686 27.3909 30.8772 29.4586 34.3435C31.1848 32.104 32.3293 30.3476 34.9342 27.9518C35.4154 29.2512 35.7957 30.5869 36.0729 31.9445C35.2669 33.2263 32.6308 37.2169 29.4999 39.7905C26.369 37.2169 23.7331 33.2263 22.927 31.9445C23.0708 31.2404 23.1954 30.6104 23.3942 29.9201C22.7757 29.3102 21.9972 28.6574 21.2148 28.0453C20.6962 29.6009 20.4244 30.9468 20.1508 32.4329C23.295 38.1287 26.7725 40.9408 29.4586 43.0943C32.3008 40.8536 36.2411 37.5657 38.8492 32.4329C37.6511 25.6821 33.6448 19.8762 32.5168 18.4555C31.874 19.0741 31.2226 19.7361 30.6714 20.3669C31.9202 21.9761 32.9811 23.6605 33.8397 25.4066C32.2414 26.7998 30.8078 28.3012 29.5001 29.949C28.1924 28.3012 26.7588 26.7998 25.1605 25.4066C27.2465 21.1656 30.9834 16.9607 32.7554 15.598C32.7556 15.5978 32.7558 15.5976 32.756 15.5976C37.372 11.5322 42.2698 9.18287 44.4603 8.25263C45.7208 11.546 46.5297 14.7802 46.8718 17.8976C43.3565 19.0916 40.2392 20.6959 37.3414 22.6971C37.7731 23.4208 38.1752 24.2681 38.5183 25.0786C41.1032 23.2507 44.9251 21.2079 48.3235 20.1812C51.4299 19.2426 54.72 18.8012 56.1817 18.8012C56.4969 21.5846 56.8947 29.5318 52.2863 35.763C49.6552 39.32 45.7927 41.7795 40.7666 43.106C44.4868 39.3104 49.5914 32.1952 49.6961 21.6842C48.8075 21.9345 47.8725 22.2243 47.0402 22.5354C46.7932 29.3933 44.3365 34.4647 41.3861 38.2857H41.388C41.1867 38.5112 36.6531 43.914 33.4436 46.9996C38.4851 46.2729 48.2545 45.6372 54.4134 37.3117C58.7632 31.4292 59.7988 23.3909 58.4425 16.3154L58.4427 16.3158ZM18.2332 43.1064C13.2071 41.7799 9.34475 39.3204 6.71372 35.7634C2.1051 29.5322 2.50288 21.585 2.8181 18.8016H2.87478C4.7885 18.8016 7.00409 19.1369 9.33633 19.7789C8.79439 31.3414 14.292 39.0854 18.233 43.1064H18.2332Z" fill="#232323"/>
</svg>
