<svg width="20" height="19" viewBox="0 0 20 19" fill="none" xmlns="http://www.w3.org/2000/svg">
<path d="M8.3636 0.5C6.90722 0.5 5.48354 0.931867 4.2726 1.74099C3.06167 2.55011 2.11786 3.70015 1.56052 5.04567C1.00319 6.39119 0.857367 7.87176 1.14149 9.30016C1.42562 10.7286 2.12693 12.0406 3.15675 13.0704C4.18657 14.1003 5.49863 14.8016 6.92703 15.0857C8.35543 15.3698 9.836 15.224 11.1815 14.6667C12.527 14.1093 13.6771 13.1655 14.4862 11.9546C15.2953 10.7437 15.7272 9.31997 15.7272 7.86359C15.7271 5.91069 14.9512 4.0378 13.5703 2.65688C12.1894 1.27597 10.3165 0.500124 8.3636 0.5Z" stroke="#333333" stroke-miterlimit="10"/>
<path d="M13.8574 13.3573L19 18.5" stroke="#333333" stroke-miterlimit="10" stroke-linecap="round"/>
</svg>
