<svg width="20" height="19" viewBox="0 0 20 19" fill="none" xmlns="http://www.w3.org/2000/svg">
<path d="M19.0609 18.0332C17.5787 15.4719 15.2519 13.6748 12.5481 12.9126C13.8626 12.2444 14.9138 11.1529 15.5321 9.81421C16.1504 8.4755 16.2998 6.96757 15.9563 5.53355C15.6127 4.09953 14.7962 2.82301 13.6384 1.90982C12.4806 0.996635 11.049 0.5 9.57436 0.5C8.09976 0.5 6.66814 0.996635 5.51033 1.90982C4.35252 2.82301 3.53601 4.09953 3.19245 5.53355C2.8489 6.96757 2.99832 8.4755 3.61663 9.81421C4.23494 11.1529 5.2861 12.2444 6.60061 12.9126C3.89686 13.6738 1.56998 15.471 0.0877973 18.0332C0.0470983 18.0972 0.0197704 18.1688 0.00745781 18.2437C-0.00485481 18.3185 -0.00189761 18.3951 0.0161512 18.4688C0.0342 18.5425 0.0669675 18.6117 0.112483 18.6724C0.157998 18.7331 0.21532 18.784 0.281 18.8219C0.34668 18.8599 0.419362 18.8842 0.494672 18.8934C0.569982 18.9025 0.646365 18.8963 0.719224 18.8752C0.792084 18.854 0.859915 18.8184 0.918637 18.7704C0.977359 18.7223 1.02576 18.6629 1.06092 18.5957C2.86186 15.4841 6.04373 13.6269 9.57436 13.6269C13.105 13.6269 16.2869 15.4841 18.0878 18.5957C18.123 18.6629 18.1714 18.7223 18.2301 18.7704C18.2888 18.8184 18.3566 18.854 18.4295 18.8752C18.5024 18.8963 18.5787 18.9025 18.654 18.8934C18.7294 18.8842 18.802 18.8599 18.8677 18.8219C18.9334 18.784 18.9907 18.7331 19.0362 18.6724C19.0818 18.6117 19.1145 18.5425 19.1326 18.4688C19.1506 18.3951 19.1536 18.3185 19.1413 18.2437C19.129 18.1688 19.1016 18.0972 19.0609 18.0332ZM4.13686 7.06444C4.13686 5.989 4.45576 4.93772 5.05324 4.04352C5.65072 3.14933 6.49995 2.45239 7.49352 2.04084C8.48709 1.62929 9.58039 1.52161 10.6352 1.73142C11.6899 1.94122 12.6588 2.4591 13.4193 3.21954C14.1797 3.97999 14.6976 4.94886 14.9074 6.00363C15.1172 7.0584 15.0095 8.1517 14.598 9.14528C14.1864 10.1389 13.4895 10.9881 12.5953 11.5856C11.7011 12.183 10.6498 12.5019 9.57436 12.5019C8.13278 12.5002 6.75074 11.9268 5.73139 10.9074C4.71203 9.88806 4.1386 8.50602 4.13686 7.06444Z" fill="#333333"/>
</svg>
