<svg width="84" height="84" viewBox="0 0 84 84" fill="none" xmlns="http://www.w3.org/2000/svg">
<g filter="url(#filter0_d_299_218)">
<rect x="7" y="5" width="70" height="70" rx="35" fill="white"/>
<path d="M55.45 30H39.8C38.55 30 37.5 31.05 37.5 32.3V32.65H30.65C30.2 32.65 29.8 32.9 29.6 33.3L27.1 38.35C27 38.5 27 38.7 27 38.9V46.7C27 47.2 27.4 47.6 27.9 47.6H29.35C29.6 49.4 31.15 50.75 33 50.75C34.85 50.75 36.4 49.35 36.65 47.6H38.4H47.35C47.6 49.4 49.15 50.75 51 50.75C52.85 50.75 54.4 49.35 54.65 47.6H56.5C57.2 47.6 57.75 47.05 57.75 46.35V32.25C57.75 31 56.7 30 55.45 30ZM31 34.35H37.55V37.85H29.25L31 34.35ZM32.95 48.95C31.85 48.95 31 48.05 31 47C31 45.95 31.9 45.05 32.95 45.05C34 45.05 34.9 45.95 34.9 47C34.9 48.05 34.05 48.95 32.95 48.95ZM32.95 43.3C31.35 43.3 29.95 44.35 29.45 45.8H28.75V39.65H37.55V45.8H36.5C35.95 44.35 34.6 43.3 32.95 43.3ZM51 48.95C49.9 48.95 49.05 48.05 49.05 47C49.05 45.95 49.95 45.05 51 45.05C52.05 45.05 52.95 45.95 52.95 47C52.95 48.05 52.05 48.95 51 48.95ZM56 45.8H54.5C54 44.35 52.6 43.3 51 43.3C49.4 43.3 48 44.35 47.5 45.8H39.25V32.25C39.25 31.95 39.5 31.7 39.8 31.7H55.45C55.75 31.7 56 31.95 56 32.25V45.8Z" fill="#232323"/>
</g>
<defs>
<filter id="filter0_d_299_218" x="0" y="0" width="84" height="84" filterUnits="userSpaceOnUse" color-interpolation-filters="sRGB">
<feFlood flood-opacity="0" result="BackgroundImageFix"/>
<feColorMatrix in="SourceAlpha" type="matrix" values="0 0 0 0 0 0 0 0 0 0 0 0 0 0 0 0 0 0 127 0" result="hardAlpha"/>
<feOffset dy="2"/>
<feGaussianBlur stdDeviation="3.5"/>
<feComposite in2="hardAlpha" operator="out"/>
<feColorMatrix type="matrix" values="0 0 0 0 0 0 0 0 0 0 0 0 0 0 0 0 0 0 0.1 0"/>
<feBlend mode="normal" in2="BackgroundImageFix" result="effect1_dropShadow_299_218"/>
<feBlend mode="normal" in="SourceGraphic" in2="effect1_dropShadow_299_218" result="shape"/>
</filter>
</defs>
</svg>
